<?xml version="1.0" standalone="no"?>
<!DOCTYPE svg PUBLIC "-//W3C//DTD SVG 20010904//EN"
 "http://www.w3.org/TR/2001/REC-SVG-20010904/DTD/svg10.dtd">
<svg version="1.0" xmlns="http://www.w3.org/2000/svg"
 width="500.000000pt" height="500.000000pt" viewBox="0 0 500.000000 500.000000"
 preserveAspectRatio="xMidYMid meet">

<g transform="translate(0.000000,500.000000) scale(0.100000,-0.100000)"
fill="#000000" stroke="none">
<path d="M2215 4579 c-333 -42 -593 -257 -825 -682 l-63 -114 -63 -6 c-169
-16 -278 -160 -244 -323 39 -189 229 -282 398 -195 54 28 132 120 132 155 0
28 14 17 40 -30 13 -26 39 -58 57 -72 l32 -27 -23 -25 c-40 -43 -118 -162
-146 -225 -106 -232 -117 -456 -35 -701 45 -135 110 -250 236 -419 73 -99 96
-128 345 -447 93 -119 212 -271 264 -338 52 -67 103 -128 114 -136 29 -20 79
-17 109 6 21 16 423 540 698 910 179 240 258 415 282 627 27 242 -43 494 -189
685 l-47 60 32 25 c17 13 43 46 59 71 25 43 27 56 27 147 0 89 -3 105 -27 151
-15 28 -47 69 -72 91 -35 31 -52 57 -76 119 -121 307 -301 509 -554 624 -123
56 -325 86 -461 69z m519 -734 c415 -58 576 -147 576 -320 0 -75 -42 -145 -87
-145 -13 0 -49 13 -81 29 -209 105 -556 153 -847 117 -159 -19 -260 -45 -385
-98 -52 -22 -108 -45 -123 -51 -33 -14 -68 2 -101 46 -25 34 -34 143 -16 187
38 92 208 169 495 225 149 29 402 33 569 10z m-1344 -204 c94 -74 92 -198 -3
-275 -34 -27 -46 -31 -100 -31 -72 1 -107 19 -143 77 -47 74 -25 185 46 235
58 40 144 38 200 -6z m1365 -249 c158 -43 268 -105 372 -208 97 -98 155 -196
204 -349 18 -54 18 -293 0 -370 -19 -82 -99 -246 -161 -327 -28 -38 -118 -130
-198 -205 -164 -153 -349 -338 -425 -425 -27 -32 -53 -58 -58 -58 -4 0 -74 68
-156 151 -81 83 -206 204 -278 268 -266 237 -367 371 -426 561 -20 64 -24 96
-24 225 0 142 2 155 31 235 106 296 328 475 649 520 103 15 390 4 470 -18z"/>
<path d="M2390 3196 c-254 -84 -304 -407 -86 -555 86 -58 217 -67 311 -20 187
93 226 352 75 498 -82 80 -201 110 -300 77z"/>
<path d="M2229 2506 c-163 -47 -269 -173 -269 -320 0 -53 2 -56 52 -101 64
-57 161 -107 265 -137 94 -27 284 -31 373 -9 117 30 240 92 313 159 24 23 27
33 27 92 0 86 -40 170 -111 234 -89 80 -130 90 -384 93 -158 1 -233 -2 -266
-11z"/>
</g>
</svg>
